<svg viewBox="0 0 500 500" xmlns="http://www.w3.org/2000/svg"><defs><clipPath id="a"><path d="M0 0h500v500H0Z"/></clipPath></defs><g clip-path="url(#a)"><path fill="#FFD138" d="M121.99 0h255.97c67.37 0 121.99 54.61 121.99 121.99v255.97c0 67.37-54.62 121.99-121.99 121.99H121.98C54.6 499.95-.01 445.33-.01 377.96V121.98C-.01 54.6 54.6-.01 121.98-.01Z"/><g><path d="M396.79 383.443H123.35c-3.74 0-6.67-3.07-6.67-6.67V103.33c0-7.47-6.01-13.34-13.34-13.34 -7.47 0-13.34 5.86-13.34 13.33V390.39h-.02c0 10.8 8.8 19.6 19.72 19.6h286.93c7.33 0 13.33-6.01 13.33-13.34 0-7.47-6.01-13.34-13.34-13.34l.13.1Z"/><path d="M163.37 356.76h206.74c10.53.4 19.47-7.87 20-18.35v-23.35c-.54-10.67-9.47-18.81-20.01-18.34H163.35c-10.68-.54-19.61 7.73-20.01 18.34v23.34c.4 10.53 9.33 18.67 20 18.34Z"/><path d="M143.36 245.05c.4 10.53 9.33 18.67 20 18.34h126.71c10.53.4 19.46-7.87 19.99-18.34V221.7c-.54-10.68-9.48-18.81-20.01-18.41H163.336c-10.68-.54-19.61 7.73-20.01 18.274l.01 23.47Z"/><path d="M163.37 170.03h60.02 -.02c10.53.4 19.47-7.87 20-18.34v-23.35c-.54-10.68-9.47-18.81-20.01-18.41h-60.03v-.07c-10.68-.54-19.61 7.73-20.01 18.27v23.34c.4 10.53 9.33 18.67 20 18.34l.01.2Z"/></g></g></svg>