<svg viewBox="0 0 500 500" xmlns="http://www.w3.org/2000/svg"><defs><clipPath id="a"><path d="M0 0h500v500H0Z"/></clipPath></defs><g clip-path="url(#a)"><g fill="#FFF"><path d="M479.16 458.33H52.07c-5.84 0-10.42-4.8-10.42-10.42V20.82C41.65 9.15 32.27-.02 20.81-.02 9.14-.02-.03 9.14-.03 20.81v448.37h-.03c0 16.875 13.74 30.625 30.81 30.625H478.91c11.45 0 20.83-9.375 20.83-20.84 0-11.67-9.375-20.84-20.84-20.84l.2.16Z"/><path d="M114.582 416.66H437.49c16.45.62 30.41-12.3 31.25-28.65v-36.46c-.84-16.67-14.8-29.375-31.25-28.65H114.582c-16.67-.84-30.63 12.08-31.25 28.64v36.45c.62 16.45 14.58 29.16 31.25 28.64Z"/><path d="M83.33 242.187c.625 16.45 14.58 29.16 31.24 28.64H312.48c16.45.625 30.39-12.3 31.22-28.65v-36.46c-.84-16.67-14.8-29.38-31.25-28.75h-197.92c-16.67-.84-30.63 12.08-31.25 28.54l.02 36.666Z"/><path d="M114.583 125h93.75 -.03c16.45.625 30.41-12.3 31.25-28.65V59.89c-.84-16.67-14.8-29.38-31.25-28.75h-93.75v-.11c-16.67-.84-30.63 12.08-31.25 28.54v36.45c.62 16.45 14.58 29.16 31.24 28.64l.02.31Z"/></g></g></svg>